HIERARCHY
ROOT Hips
{
    OFFSET   0.000000   0.000000   0.000000
    CHANNELS 6 Xposition Yposition Zposition Zrotation Xrotation Yrotation
    JOINT Chest
    {
        OFFSET   0.000000   8.007240   0.000000
        CHANNELS 3 Zrotation Xrotation Yrotation
        JOINT Chest2
        {
            OFFSET   0.000000  22.077100   0.000000
            CHANNELS 3 Zrotation Xrotation Yrotation
            JOINT Neck
            {
                OFFSET   0.000000  23.254800   0.000000
                CHANNELS 3 Zrotation Xrotation Yrotation
                JOINT Head
                {
                    OFFSET   0.000000  14.370000   1.956600
                    CHANNELS 3 Zrotation Xrotation Yrotation
                    End Site
                    {
                        OFFSET   0.000000  19.566000   0.000000
                    }
                }
            }
            JOINT LeftCollar
            {
                OFFSET   3.911900  19.017000  -0.467064
                CHANNELS 3 Zrotation Xrotation Yrotation
                JOINT LeftShoulder
                {
                    OFFSET  10.383700   0.000000   0.000000
                    CHANNELS 3 Zrotation Xrotation Yrotation
                    JOINT LeftElbow
                    {
                        OFFSET  26.662100   0.001476   0.000517
                        CHANNELS 3 Zrotation Xrotation Yrotation
                        JOINT LeftWrist
                        {
                            OFFSET  28.869000  -0.000025  -0.000106
                            CHANNELS 3 Zrotation Xrotation Yrotation
                            JOINT LeftFinger0
                            {
                                OFFSET   2.044660  -2.323460   3.252850
                                CHANNELS 3 Zrotation Xrotation Yrotation
                                JOINT LeftFinger01
                                {
                                    OFFSET   3.088130   0.000000   0.000000
                                    CHANNELS 3 Zrotation Xrotation Yrotation
                                    JOINT LeftFinger02
                                    {
                                        OFFSET   2.639460   0.000000   0.000000
                                        CHANNELS 3 Zrotation Xrotation Yrotation
                                        End Site
                                        {
                                            OFFSET   2.582190   0.000000   0.000000
                                        }
                                    }
                                }
                            }
                            JOINT LeftFinger1
                            {
                                OFFSET   8.364480   0.000000   3.252850
                                CHANNELS 3 Zrotation Xrotation Yrotation
                                JOINT LeftFinger11
                                {
                                    OFFSET   4.646930   0.000000   0.000000
                                    CHANNELS 3 Zrotation Xrotation Yrotation
                                    JOINT LeftFinger12
                                    {
                                        OFFSET   2.323460   0.000000   0.000000
                                        CHANNELS 3 Zrotation Xrotation Yrotation
                                        End Site
                                        {
                                            OFFSET   2.273050   0.000000   0.000000
                                        }
                                    }
                                }
                            }
                            JOINT LeftFinger2
                            {
                                OFFSET   8.364490   0.000015   1.078090
                                CHANNELS 3 Zrotation Xrotation Yrotation
                                JOINT LeftFinger21
                                {
                                    OFFSET   5.111620   0.000000   0.000000
                                    CHANNELS 3 Zrotation Xrotation Yrotation
                                    JOINT LeftFinger22
                                    {
                                        OFFSET   2.788160   0.000016   0.000000
                                        CHANNELS 3 Zrotation Xrotation Yrotation
                                        End Site
                                        {
                                            OFFSET   2.727660   0.000000   0.000000
                                        }
                                    }
                                }
                            }
                            JOINT LeftFinger3
                            {
                                OFFSET   7.899780   0.000017  -1.078090
                                CHANNELS 3 Zrotation Xrotation Yrotation
                                JOINT LeftFinger31
                                {
                                    OFFSET   4.646930   0.000000   0.000000
                                    CHANNELS 3 Zrotation Xrotation Yrotation
                                    JOINT LeftFinger32
                                    {
                                        OFFSET   2.323470   0.000000   0.000000
                                        CHANNELS 3 Zrotation Xrotation Yrotation
                                        End Site
                                        {
                                            OFFSET   2.273050   0.000000   0.000000
                                        }
                                    }
                                }
                            }
                            JOINT LeftFinger4
                            {
                                OFFSET   7.435090   0.000000  -3.252850
                                CHANNELS 3 Zrotation Xrotation Yrotation
                                JOINT LeftFinger41
                                {
                                    OFFSET   3.717550   0.000000   0.000000
                                    CHANNELS 3 Zrotation Xrotation Yrotation
                                    JOINT LeftFinger42
                                    {
                                        OFFSET   1.858770   0.000000   0.000000
                                        CHANNELS 3 Zrotation Xrotation Yrotation
                                        End Site
                                        {
                                            OFFSET   1.818440   0.000000   0.000000
                                        }
                                    }
                                }
                            }
                        }
                    }
                }
            }
            JOINT RightCollar
            {
                OFFSET  -3.911900  19.017000  -0.467063
                CHANNELS 3 Zrotation Xrotation Yrotation
                JOINT RightShoulder
                {
                    OFFSET -10.383700   0.000019   0.000000
                    CHANNELS 3 Zrotation Xrotation Yrotation
                    JOINT RightElbow
                    {
                        OFFSET -26.662100   0.001175   0.000102
                        CHANNELS 3 Zrotation Xrotation Yrotation
                        JOINT RightWrist
                        {
                            OFFSET -28.869000   0.000016  -0.000079
                            CHANNELS 3 Zrotation Xrotation Yrotation
                            JOINT RightFinger0
                            {
                                OFFSET  -2.044660  -2.323490   3.252850
                                CHANNELS 3 Zrotation Xrotation Yrotation
                                JOINT RightFinger01
                                {
                                    OFFSET  -3.088140   0.000000   0.000000
                                    CHANNELS 3 Zrotation Xrotation Yrotation
                                    JOINT RightFinger02
                                    {
                                        OFFSET  -2.639460   0.000000   0.000000
                                        CHANNELS 3 Zrotation Xrotation Yrotation
                                        End Site
                                        {
                                            OFFSET  -2.582190   0.000000   0.000000
                                        }
                                    }
                                }
                            }
                            JOINT RightFinger1
                            {
                                OFFSET  -8.364480   0.000000   3.252850
                                CHANNELS 3 Zrotation Xrotation Yrotation
                                JOINT RightFinger11
                                {
                                    OFFSET  -4.646930   0.000000   0.000000
                                    CHANNELS 3 Zrotation Xrotation Yrotation
                                    JOINT RightFinger12
                                    {
                                        OFFSET  -2.323470   0.000000   0.000000
                                        CHANNELS 3 Zrotation Xrotation Yrotation
                                        End Site
                                        {
                                            OFFSET  -2.273050   0.000000   0.000000
                                        }
                                    }
                                }
                            }
                            JOINT RightFinger2
                            {
                                OFFSET  -8.364480   0.000000   1.078090
                                CHANNELS 3 Zrotation Xrotation Yrotation
                                JOINT RightFinger21
                                {
                                    OFFSET  -5.111620   0.000000   0.000000
                                    CHANNELS 3 Zrotation Xrotation Yrotation
                                    JOINT RightFinger22
                                    {
                                        OFFSET  -2.788160   0.000000   0.000000
                                        CHANNELS 3 Zrotation Xrotation Yrotation
                                        End Site
                                        {
                                            OFFSET  -2.727660   0.000000   0.000000
                                        }
                                    }
                                }
                            }
                            JOINT RightFinger3
                            {
                                OFFSET  -7.899780   0.000000  -1.078090
                                CHANNELS 3 Zrotation Xrotation Yrotation
                                JOINT RightFinger31
                                {
                                    OFFSET  -4.646930   0.000000   0.000000
                                    CHANNELS 3 Zrotation Xrotation Yrotation
                                    JOINT RightFinger32
                                    {
                                        OFFSET  -2.323470   0.000000   0.000000
                                        CHANNELS 3 Zrotation Xrotation Yrotation
                                        End Site
                                        {
                                            OFFSET  -2.273050   0.000000   0.000000
                                        }
                                    }
                                }
                            }
                            JOINT RightFinger4
                            {
                                OFFSET  -7.435090   0.000000  -3.252850
                                CHANNELS 3 Zrotation Xrotation Yrotation
                                JOINT RightFinger41
                                {
                                    OFFSET  -3.717550   0.000000   0.000000
                                    CHANNELS 3 Zrotation Xrotation Yrotation
                                    JOINT RightFinger42
                                    {
                                        OFFSET  -1.858770   0.000000   0.000000
                                        CHANNELS 3 Zrotation Xrotation Yrotation
                                        End Site
                                        {
                                            OFFSET  -1.818440   0.000000   0.000000
                                        }
                                    }
                                }
                            }
                        }
                    }
                }
            }
        }
    }
    JOINT LeftHip
    {
        OFFSET   9.783040   0.000000   0.000000
        CHANNELS 3 Zrotation Xrotation Yrotation
        JOINT LeftKnee
        {
            OFFSET   0.000032 -41.789100  -0.002222
            CHANNELS 3 Zrotation Xrotation Yrotation
            JOINT LeftAnkle
            {
                OFFSET   0.000087 -41.133200  -0.000135
                CHANNELS 3 Zrotation Xrotation Yrotation
                JOINT LeftToe
                {
                    OFFSET   0.000000  -6.358960  14.674500
                    CHANNELS 3 Zrotation Xrotation Yrotation
                    End Site
                    {
                        OFFSET   0.000000   0.000000   3.913200
                    }
                }
            }
        }
    }
    JOINT RightHip
    {
        OFFSET  -9.783040   0.000000   0.000000
        CHANNELS 3 Zrotation Xrotation Yrotation
        JOINT RightKnee
        {
            OFFSET   0.000047 -41.789100  -0.000896
            CHANNELS 3 Zrotation Xrotation Yrotation
            JOINT RightAnkle
            {
                OFFSET  -0.000117 -41.133300  -0.000248
                CHANNELS 3 Zrotation Xrotation Yrotation
                JOINT RightToe
                {
                    OFFSET   0.000000  -6.358970  14.674500
                    CHANNELS 3 Zrotation Xrotation Yrotation
                    End Site
                    {
                        OFFSET   0.000000   0.000000   3.913200
                    }
                }
            }
        }
    }
}
MOTION
Frames: 4
Frame Time:   0.016667
  0.106621  89.537300   0.180719  -3.298400  -7.261330  -0.843183   0.895157   5.354560   1.484600   1.660960  10.730100   2.903810  -2.805080  -1.673960  -0.086269  -4.619290  -3.370080  11.451000  -8.231000   1.474760  -1.703700 -71.698100  15.021900  -9.969210  -1.658630 -13.050200  -8.924710   7.064670  -7.690890  12.206900  39.554000  23.978800 -59.368800 -22.469100  -0.001975  -0.000796  -6.234570   0.004463   0.002301 -37.538200   6.278530  -8.100370 -31.077100   0.000756   0.001000 -21.754000   0.000419   0.000345 -29.452100   2.475090  -4.373490 -44.319900   0.004444   0.001729 -29.517000   0.001090   0.004762 -31.525700  -1.089420   1.775180 -47.313800   0.001221   0.002694 -31.511000   0.001970  -0.000558 -42.202300  -1.744890   1.923120 -63.347400   0.001569  -0.000417 -42.189400   0.002098   0.000261   7.194520  -1.252720  10.647400  51.097000  24.297900  27.258000 -10.399100 -10.376300 103.125000  31.026700 -29.482200  44.933100 -59.040400  54.333300 108.293000  26.095100   0.004637  -0.002866   8.047570   0.003469  -0.002915  32.325900   8.796110  13.585100  27.307300   0.000512  -0.004933  19.115100  -0.005735   0.002155  27.495000   4.242820   8.090630  30.758100  -0.000143   0.003137  20.484900  -0.003605   0.005667  27.970600   1.667150   3.135950  32.108700   0.000379   0.002768  21.384400   0.000000   0.003552  35.570400   0.103535   0.145445  53.356000  -0.004900   0.000688  35.535100  -0.002748   0.003320   3.246190  11.939600   2.020620   0.191890   0.760747   6.609520  -2.244710  -4.478800   1.955200  -0.000000   0.000000   0.000000   1.469790   5.638880  -2.236260   1.341590   5.419190  -6.271700  -4.003440  -2.115780  -4.729030   0.000000   0.000000  -0.000000
  0.111458  89.537200   0.185012  -3.312460  -7.247670  -0.900234   0.898471   5.349160   1.488980   1.667330  10.719400   2.912300  -2.783040  -1.681440  -0.086465  -4.584730  -3.385610  11.417400  -8.219270   1.466180  -1.706540 -71.698300  14.980500  -9.964440  -1.662100 -13.010100  -9.007670   7.096700  -7.756020  12.208000  39.570300  23.999500 -59.414600 -22.441400  -0.001954  -0.000775  -6.220720   0.004468   0.002299 -37.564800   6.236260  -8.039800 -31.094400   0.000790   0.001002 -21.766100   0.000437   0.000333 -29.473800   2.437490  -4.303680 -44.348200   0.004385   0.001677 -29.535900   0.001091   0.004714 -31.541600  -1.133860   1.846300 -47.339700   0.001219   0.002804 -31.528200   0.001969  -0.000545 -42.222800  -1.751390   1.928860 -63.378500   0.001558  -0.000417 -42.210100   0.002098   0.000262   7.195370  -1.257230  10.642300  51.082400  24.337600  27.258600 -10.419900 -10.412400 103.109000  31.258700 -29.755100  45.263800 -59.040400  54.333300 108.293000  25.985500   0.004836  -0.002901   7.992760   0.003490  -0.003028  32.425600   8.838390  13.575200  27.393900   0.000523  -0.004817  19.175700  -0.005741   0.002060  27.530800   4.274600   8.132370  30.985800  -0.000111   0.003092  20.636500  -0.003852   0.005676  28.010500   1.703990   3.200030  32.389900   0.000547   0.002716  21.571700   0.000058   0.003536  35.749200   0.060674   0.084797  53.623900  -0.005187   0.000805  35.713500  -0.002728   0.003840   3.248400  11.938600   2.020040   0.189895   0.760902   6.627600  -2.238330  -4.488220   1.997280   0.000000   0.000000  -0.000000   1.472580   5.629480  -2.231490   1.335850   5.418080  -6.255300  -3.995100  -2.111060  -4.692950  -0.000000   0.000000  -0.000000
  0.115443  89.537200   0.189610  -3.324450  -7.231990  -0.954137   0.901666   5.343260   1.491240   1.673690  10.707700   2.916660  -2.770310  -1.694850  -0.086663  -4.562500  -3.412830  11.402900  -8.207410   1.461960  -1.710960 -71.697500  14.910400  -9.958330  -1.677750 -12.935600  -9.158000   7.127090  -7.819340  12.204500  39.594900  24.050800 -59.461600 -22.431300  -0.001936  -0.000746  -6.215630   0.004472   0.002297 -37.586500   6.193960  -7.979250 -31.106400   0.000823   0.001003 -21.774500   0.000454   0.000321 -29.494500   2.399870  -4.233870 -44.374900   0.004326   0.001626 -29.553700   0.001093   0.004666 -31.557100  -1.178300   1.917420 -47.365300   0.001217   0.002913 -31.545300   0.001969  -0.000533 -42.244500  -1.758270   1.934920 -63.411300   0.001547  -0.000416 -42.231900   0.002097   0.000262   7.195430  -1.258120  10.636600  51.056900  24.390600  27.263100 -10.434400 -10.450800 103.117000  31.519100 -29.977200  45.595200 -59.040400  54.333300 108.293000  25.875900   0.005031  -0.002935   7.937950   0.003512  -0.003141  32.532200   8.852820  13.564300  27.480400   0.000527  -0.004702  19.236300  -0.005747   0.001961  27.558500   4.279900   8.138350  31.150000  -0.000081   0.003048  20.745900  -0.004104   0.005683  28.042300   1.715610   3.217010  32.606900   0.000711   0.002660  21.716200   0.000114   0.003518  35.878500   0.029713   0.040933  53.817700  -0.005473   0.000930  35.842600  -0.002711   0.004359   3.251600  11.937600   2.019950   0.186813   0.761062   6.642180  -2.233230  -4.501180   2.034930  -0.000000   0.000000   0.000000   1.474670   5.611240  -2.223030   1.328830   5.418040  -6.241080  -3.988080  -2.106640  -4.661660   0.000000   0.000000   0.000000
  0.119209  89.537100   0.194850  -3.333270  -7.215940  -1.002300   0.905238   5.336820   1.490120   1.681140  10.694900   2.914170  -2.770570  -1.708570  -0.086890  -4.558760  -3.440360  11.402100  -8.196500   1.462550  -1.716410 -71.696500  14.836500  -9.955410  -1.692400 -12.852200  -9.311480   7.158750  -7.861080  12.163100  39.626900  24.109300 -59.478200 -22.431800  -0.001917  -0.000732  -6.215880   0.004466   0.002297 -37.572600   6.248610  -8.052220 -31.101900   0.000854   0.001006 -21.771300   0.000472   0.000307 -29.503700   2.442230  -4.307250 -44.393700   0.004268   0.001573 -29.566200   0.001094   0.004620 -31.578500  -1.135460   1.846940 -47.395000   0.001219   0.003024 -31.565100   0.001968  -0.000520 -42.280500  -1.769770   1.945120 -63.465900   0.001537  -0.000415 -42.268300   0.002098   0.000260   7.194810  -1.255820  10.631100  51.035600  24.420000  27.262900 -10.424100 -10.480200 103.161000  31.813200 -30.141700  45.900100 -59.040400  54.333300 108.293000  26.150400   0.005216  -0.002964   8.075170   0.003536  -0.003256  32.480100   8.851570  13.596600  27.439200   0.000519  -0.004591  19.207400  -0.005752   0.001867  27.558400   4.278500   8.135700  31.147700  -0.000031   0.003001  20.744300  -0.004372   0.005705  28.045400   1.725120   3.233920  32.632700   0.000883   0.002606  21.733300   0.000148   0.003491  35.872600   0.031083   0.042981  53.809000  -0.005769   0.001059  35.836700  -0.002692   0.004891   3.252650  11.942200   2.025360   0.179017   0.747378   6.653920  -2.228270  -4.503580   2.064640  -0.000000   0.000000   0.000000   1.472840   5.588560  -2.214920   1.325810   5.426750  -6.224100  -3.983360  -2.103540  -4.639470   0.000000   0.000000  -0.000000
